<?xml version="1.0" encoding="utf-8"?>
<svg viewBox="0 0 500 500" xmlns="http://www.w3.org/2000/svg">
  <path id="path24" style="fill: rgb(203, 156, 68); fill-opacity: 1; fill-rule: nonzero; stroke: none;" d="M 398.967 416.069 C 368.608 416.069 343.334 420.74 337.805 426.922 C 314.337 424.736 285.044 423.438 253.27 423.438 C 212.976 423.438 176.674 425.524 151.182 428.864 C 146.883 428.819 142.501 428.797 138.051 428.797 C 82.001 428.797 36.565 432.396 36.565 436.835 C 36.565 440.726 71.479 443.972 117.849 444.714 C 133.138 452.12 187.967 457.601 253.27 457.601 C 324.165 457.601 382.716 451.14 391.729 442.772 C 394.105 442.83 396.518 442.864 398.967 442.864 C 433.373 442.864 461.266 436.865 461.266 429.467 C 461.266 422.068 433.373 416.069 398.967 416.069"/>
  <path id="path26" style="fill: rgb(36, 93, 51); fill-opacity: 1; fill-rule: nonzero; stroke: none;" d="M 258.804 181.198 L 252.65 181.198 L 252.65 200.415 L 258.804 200.415 L 258.804 181.198"/>
  <path id="path28" style="fill: rgb(152, 51, 45); fill-opacity: 1; fill-rule: nonzero; stroke: none;" d="M 255.812 209.773 C 255.816 209.777 255.82 209.781 255.824 209.785 L 255.823 209.77 C 255.82 209.771 255.816 209.772 255.812 209.773"/>
  <path id="path30" style="fill: rgb(152, 51, 45); fill-opacity: 1; fill-rule: nonzero; stroke: none;" d="M 255.824 209.785 C 255.855 209.764 255.873 209.751 255.873 209.751 C 255.856 209.757 255.84 209.763 255.823 209.77 L 255.824 209.785"/>
  <path id="path32" style="fill: rgb(152, 51, 45); fill-opacity: 1; fill-rule: nonzero; stroke: none;" d="M 239.443 216.106 C 138.661 258.691 200.608 307.887 200.608 307.887 L 203.207 307.887 C 179.956 266.54 219.742 230.566 239.443 216.106"/>
  <path id="path34" style="fill: rgb(121, 36, 26); fill-opacity: 1; fill-rule: nonzero; stroke: none;" d="M 239.443 216.106 C 219.742 230.566 179.956 266.54 203.207 307.887 L 226.579 307.887 C 199.278 249.126 253.977 211.049 255.824 209.785 C 255.82 209.781 255.816 209.777 255.812 209.773 C 249.928 211.863 244.484 213.977 239.443 216.106"/>
  <path id="path36" style="fill: rgb(119, 35, 26); fill-opacity: 1; fill-rule: nonzero; stroke: none;" d="M 255.824 209.785 C 300.793 255.231 290.298 294.386 284.514 307.887 L 292.706 307.887 C 324.302 252.86 255.824 209.785 255.824 209.785"/>
  <path id="path38" style="fill: rgb(152, 51, 45); fill-opacity: 1; fill-rule: nonzero; stroke: none;" d="M 255.873 209.751 C 255.873 209.751 255.855 209.764 255.824 209.785 C 255.824 209.785 324.302 252.86 292.706 307.887 L 312.478 307.887 C 368.412 244.249 255.873 209.751 255.873 209.751"/>
  <path id="path40" style="fill: rgb(119, 35, 26); fill-opacity: 1; fill-rule: nonzero; stroke: none;" d="M 226.579 307.887 L 240.79 307.887 C 217.888 262.956 255.824 209.785 255.824 209.785 C 253.977 211.049 199.278 249.126 226.579 307.887"/>
  <path id="path42" style="fill: rgb(152, 51, 45); fill-opacity: 1; fill-rule: nonzero; stroke: none;" d="M 255.824 209.785 C 255.824 209.785 217.888 262.956 240.79 307.887 L 284.514 307.887 C 290.298 294.386 300.793 255.231 255.824 209.785"/>
  <path id="path44" style="fill: rgb(36, 93, 51); fill-opacity: 1; fill-rule: nonzero; stroke: none;" d="M 260.233 202.745 C 253.451 200.924 246.04 203.499 243.34 203.059 C 242.967 202.998 242.727 202.884 242.573 202.737 C 238.907 207.647 242.727 214.859 242.727 214.859 C 242.727 214.859 247.417 212.766 255.873 212.766 C 263.996 212.766 269.355 214.859 269.355 214.859 C 269.355 214.859 269.672 214.221 270.017 213.203 C 267.676 211.538 266.16 204.336 260.233 202.745"/>
  <path id="path46" style="fill: rgb(59, 145, 80); fill-opacity: 1; fill-rule: nonzero; stroke: none;" d="M 243.34 203.059 C 246.04 203.499 253.451 200.924 260.233 202.745 C 266.16 204.336 267.676 211.538 270.017 213.203 C 271.443 209.01 273.376 198.28 255.79 198.28 C 248.35 198.28 244.466 200.203 242.573 202.737 C 242.727 202.884 242.967 202.998 243.34 203.059"/>
  <path id="path48" style="fill: rgb(59, 145, 80); fill-opacity: 1; fill-rule: nonzero; stroke: none;" d="M 280.938 158.286 C 280.323 159.35 279.576 160.359 278.666 161.269 C 273.049 166.886 263.944 166.886 258.328 161.269 C 252.711 155.654 252.711 146.548 258.328 140.931 C 259.239 140.021 260.247 139.275 261.31 138.66 C 261.31 138.66 247.61 140.761 250.876 156.461 C 254.142 172.161 277.339 173.05 280.938 158.286"/>
  <path id="path50" style="fill: rgb(36, 93, 51); fill-opacity: 1; fill-rule: nonzero; stroke: none;" d="M 279.398 169.15 C 280.821 165.694 281.336 161.951 280.938 158.286 C 277.339 173.05 254.142 172.161 250.876 156.461 C 247.61 140.761 261.31 138.66 261.31 138.66 C 254.865 137.959 248.171 140.075 243.23 145.017 C 239.202 149.045 237.072 154.239 236.793 159.512 C 241.024 165.64 255.124 181.812 279.398 169.15"/>
  <path id="path52" style="fill: rgb(36, 93, 51); fill-opacity: 1; fill-rule: nonzero; stroke: none;" d="M 236.793 159.512 C 236.471 165.573 238.6 171.739 243.23 176.368 C 251.887 185.025 265.923 185.025 274.581 176.368 C 276.713 174.235 278.316 171.775 279.398 169.15 C 255.124 181.812 241.024 165.64 236.793 159.512"/>
  <path id="path54" style="fill: rgb(248, 161, 60); fill-opacity: 1; fill-rule: nonzero; stroke: none;" d="M 43.858 355.114 C 43.858 355.114 45.509 369.554 48.408 387.5 C 69.409 385.536 124.119 379.152 129.183 365.581 C 133.397 354.289 140.657 346.509 144.984 342.607 C 113.725 345.132 62.25 349.891 43.858 355.114"/>
  <path id="path56" style="fill: rgb(216, 105, 28); fill-opacity: 1; fill-rule: nonzero; stroke: none;" d="M 170.129 340.712 C 170.129 340.712 159.837 341.407 144.984 342.607 C 140.657 346.509 133.397 354.289 129.183 365.581 C 124.119 379.152 69.409 385.536 48.408 387.5 C 50.734 401.894 53.864 418.547 57.59 431.815 L 180.178 433.825 L 170.129 340.712"/>
  <path id="path58" style="fill: rgb(247, 149, 56); fill-opacity: 1; fill-rule: nonzero; stroke: none;" d="M 167.4 259.462 C 159.85 260.518 124.167 269.543 128.993 345.548 L 178.503 341.382 L 167.4 259.462"/>
  <path id="path60" style="fill: rgb(209, 87, 31); fill-opacity: 1; fill-rule: nonzero; stroke: none;" d="M 167.4 259.462 L 165.838 247.945 C 147.417 248.296 106.265 246.837 110.175 226.498 C 114.171 205.726 145.268 193.213 157.842 188.956 L 156.136 176.363 C 154.551 176.046 156.205 163.147 153.919 163.192 C 136.502 163.526 104.482 156.161 108.166 141.089 C 110.813 130.263 135.577 127.04 149.321 126.084 L 148.358 118.983 L 99.123 122.333 L 110.846 347.075 L 128.993 345.548 C 124.167 269.543 159.85 260.518 167.4 259.462"/>
  <path id="path62" style="fill: rgb(250, 183, 84); fill-opacity: 1; fill-rule: nonzero; stroke: none;" d="M 37.116 354.43 L 36.489 352.016 C 64.079 342.819 114.288 338.589 143.773 336.817 C 142.736 337.604 141.21 338.364 138.98 338.702 C 133.642 339.511 63.61 343.446 37.116 354.43"/>
  <path id="path64" style="fill: rgb(227, 152, 43); fill-opacity: 1; fill-rule: nonzero; stroke: none;" d="M 138.98 338.702 C 141.21 338.364 142.736 337.604 143.773 336.817 C 157.779 335.975 167.115 335.687 167.115 335.687 L 170.632 334.683 L 170.883 341.716 C 142.748 342.972 45.784 355.616 45.784 355.616 L 38.248 358.798 L 37.116 354.43 C 63.61 343.446 133.642 339.511 138.98 338.702"/>
  <path id="path66" style="fill: rgb(36, 93, 51); fill-opacity: 1; fill-rule: nonzero; stroke: none;" d="M 120.007 56.95 L 118.923 46.4 L 115.67 46.761 L 116.754 57.31 L 120.007 56.95"/>
  <path id="path68" style="fill: rgb(152, 51, 45); fill-opacity: 1; fill-rule: nonzero; stroke: none;" d="M 118.952 62.262 C 118.955 62.265 118.958 62.265 118.959 62.268 L 118.958 62.259 C 118.956 62.26 118.955 62.262 118.952 62.262"/>
  <path id="path70" style="fill: rgb(152, 51, 45); fill-opacity: 1; fill-rule: nonzero; stroke: none;" d="M 118.959 62.268 C 118.974 62.254 118.983 62.246 118.983 62.246 C 118.974 62.25 118.967 62.256 118.958 62.259 L 118.959 62.268"/>
  <path id="path72" style="fill: rgb(152, 51, 45); fill-opacity: 1; fill-rule: nonzero; stroke: none;" d="M 110.66 66.697 C 59.805 95.973 95.311 119.353 95.311 119.353 L 96.684 119.201 C 82.068 97.864 101.065 75.788 110.66 66.697"/>
  <path id="path74" style="fill: rgb(121, 36, 26); fill-opacity: 1; fill-rule: nonzero; stroke: none;" d="M 110.66 66.697 C 101.065 75.788 82.068 97.864 96.684 119.201 L 109.034 117.833 C 91.297 87.174 118.054 63.069 118.959 62.268 C 118.958 62.266 118.955 62.265 118.952 62.262 C 115.961 63.754 113.203 65.232 110.66 66.697"/>
  <path id="path76" style="fill: rgb(119, 35, 26); fill-opacity: 1; fill-rule: nonzero; stroke: none;" d="M 118.959 62.268 C 145.283 84.584 141.943 106.691 139.647 114.442 L 143.976 113.962 C 157.571 81.905 118.959 62.268 118.959 62.268"/>
  <path id="path78" style="fill: rgb(152, 51, 45); fill-opacity: 1; fill-rule: nonzero; stroke: none;" d="M 118.983 62.246 C 118.983 62.246 118.974 62.254 118.959 62.268 C 118.959 62.268 157.571 81.905 143.976 113.962 L 154.423 112.805 C 180.395 74.597 118.983 62.246 118.983 62.246"/>
  <path id="path80" style="fill: rgb(119, 35, 26); fill-opacity: 1; fill-rule: nonzero; stroke: none;" d="M 109.034 117.833 L 116.543 117.001 C 101.91 93.677 118.959 62.268 118.959 62.268 C 118.054 63.069 91.297 87.174 109.034 117.833"/>
  <path id="path82" style="fill: rgb(152, 51, 45); fill-opacity: 1; fill-rule: nonzero; stroke: none;" d="M 116.543 117.001 L 139.647 114.442 C 141.943 106.691 145.283 84.584 118.959 62.268 C 118.959 62.268 101.91 93.677 116.543 117.001"/>
  <path id="path84" style="fill: rgb(36, 93, 51); fill-opacity: 1; fill-rule: nonzero; stroke: none;" d="M 118.325 58.575 C 115.06 58.648 113.547 58.223 112.878 57.723 C 108.959 60.635 112.324 65.819 112.324 65.819 C 112.324 65.819 114.684 64.397 119.154 63.901 C 123.445 63.426 126.395 64.261 126.395 64.261 C 126.395 64.261 127.173 62.09 126.746 59.951 C 125.116 59.091 122.476 58.482 118.325 58.575"/>
  <path id="path86" style="fill: rgb(59, 145, 80); fill-opacity: 1; fill-rule: nonzero; stroke: none;" d="M 118.293 55.955 C 115.72 56.239 114 56.888 112.878 57.723 C 113.547 58.223 115.06 58.648 118.325 58.575 C 122.476 58.482 125.116 59.091 126.746 59.951 C 126.275 57.597 124.345 55.284 118.293 55.955"/>
  <path id="path88" style="fill: rgb(59, 145, 80); fill-opacity: 1; fill-rule: nonzero; stroke: none;" d="M 112.296 29.352 C 111.687 35.294 119.325 46.91 129.535 36.352 C 129.656 35.071 129.59 33.781 129.328 32.528 C 129.063 33.148 128.725 33.746 128.295 34.299 C 125.644 37.71 120.833 38.243 117.548 35.49 C 114.264 32.735 113.752 27.736 116.402 24.325 C 116.833 23.771 117.322 23.302 117.85 22.902 C 117.41 22.902 116.97 22.928 116.532 22.977 C 114.744 23.907 112.665 25.747 112.296 29.352"/>
  <path id="path90" style="fill: rgb(36, 93, 51); fill-opacity: 1; fill-rule: nonzero; stroke: none;" d="M 112.296 29.352 C 112.665 25.747 114.744 23.907 116.532 22.977 C 113.548 23.319 110.689 24.834 108.654 27.451 C 104.568 32.71 105.358 40.416 110.421 44.661 C 115.484 48.907 122.901 48.085 126.987 42.825 C 128.485 40.899 129.318 38.643 129.535 36.352 C 119.325 46.91 111.687 35.294 112.296 29.352"/>
  <path id="path92" style="fill: rgb(36, 93, 51); fill-opacity: 1; fill-rule: nonzero; stroke: none;" d="M 409.897 273.159 L 406.632 272.937 L 405.827 283.511 L 409.091 283.734 L 409.897 273.159"/>
  <path id="path94" style="fill: rgb(59, 145, 80); fill-opacity: 1; fill-rule: nonzero; stroke: none;" d="M 407.418 260.458 C 409.104 269.615 421.031 267.328 422.593 261.509 C 422.591 261.457 422.597 261.404 422.596 261.352 C 422.226 261.916 421.786 262.443 421.266 262.911 C 418.051 265.799 413.222 265.47 410.478 262.176 C 407.734 258.884 408.116 253.874 411.331 250.986 C 411.851 250.518 412.417 250.143 413.007 249.844 C 412.809 249.807 412.609 249.795 412.408 249.769 C 410.355 250.559 406.064 253.111 407.418 260.458"/>
  <path id="path96" style="fill: rgb(36, 93, 51); fill-opacity: 1; fill-rule: nonzero; stroke: none;" d="M 407.418 260.458 C 406.064 253.111 410.355 250.559 412.408 249.769 C 409.193 249.357 405.813 250.296 403.15 252.689 C 398.195 257.141 397.607 264.864 401.837 269.94 C 406.066 275.016 413.512 275.523 418.467 271.071 C 421.253 268.568 422.648 265.03 422.593 261.509 C 421.031 267.328 409.104 269.615 407.418 260.458"/>
  <path id="path98" style="fill: rgb(152, 51, 45); fill-opacity: 1; fill-rule: nonzero; stroke: none;" d="M 407.118 288.782 L 407.118 288.773 C 407.117 288.774 407.114 288.774 407.112 288.775 C 407.114 288.777 407.117 288.779 407.118 288.782"/>
  <path id="path100" style="fill: rgb(152, 51, 45); fill-opacity: 1; fill-rule: nonzero; stroke: none;" d="M 407.118 288.782 C 407.135 288.771 407.145 288.765 407.145 288.765 C 407.136 288.768 407.127 288.77 407.118 288.773 L 407.118 288.782"/>
  <path id="path102" style="fill: rgb(152, 51, 45); fill-opacity: 1; fill-rule: nonzero; stroke: none;" d="M 398.164 291.669 C 342.924 311.462 373.721 340.768 373.721 340.768 L 375.1 340.862 C 364.499 317.271 387.11 298.913 398.164 291.669"/>
  <path id="path104" style="fill: rgb(121, 36, 26); fill-opacity: 1; fill-rule: nonzero; stroke: none;" d="M 398.164 291.669 C 387.11 298.913 364.499 317.271 375.1 340.862 L 387.496 341.706 C 375.477 308.388 406.086 289.41 407.118 288.782 C 407.117 288.779 407.114 288.777 407.112 288.775 C 403.904 289.713 400.928 290.679 398.164 291.669"/>
  <path id="path106" style="fill: rgb(119, 35, 26); fill-opacity: 1; fill-rule: nonzero; stroke: none;" d="M 407.118 288.782 C 429.066 315.411 421.86 336.577 418.226 343.796 L 422.572 344.093 C 441.636 314.955 407.118 288.782 407.118 288.782"/>
  <path id="path108" style="fill: rgb(152, 51, 45); fill-opacity: 1; fill-rule: nonzero; stroke: none;" d="M 407.145 288.765 C 407.145 288.765 407.135 288.771 407.118 288.782 C 407.118 288.782 441.636 314.955 422.572 344.093 L 433.059 344.806 C 465.393 311.809 407.145 288.765 407.145 288.765"/>
  <path id="path110" style="fill: rgb(119, 35, 26); fill-opacity: 1; fill-rule: nonzero; stroke: none;" d="M 387.496 341.706 L 395.033 342.219 C 384.769 316.668 407.118 288.782 407.118 288.782 C 406.086 289.41 375.477 308.388 387.496 341.706"/>
  <path id="path112" style="fill: rgb(152, 51, 45); fill-opacity: 1; fill-rule: nonzero; stroke: none;" d="M 407.118 288.782 C 407.118 288.782 384.769 316.668 395.033 342.219 L 418.226 343.796 C 421.86 336.577 429.066 315.411 407.118 288.782"/>
  <path id="path114" style="fill: rgb(36, 93, 51); fill-opacity: 1; fill-rule: nonzero; stroke: none;" d="M 410.515 286.123 C 407.669 284.616 402.435 285.998 400.97 285.537 C 400.486 285.385 400.316 284.991 400.301 284.531 C 398.282 287.107 399.959 291.101 399.959 291.101 C 399.959 291.101 402.533 290.119 407.02 290.424 C 411.328 290.716 414.083 292.062 414.083 292.062 C 414.083 292.062 414.554 291.241 414.883 290.08 C 413.943 288.978 412.429 287.136 410.515 286.123"/>
  <path id="path116" style="fill: rgb(59, 145, 80); fill-opacity: 1; fill-rule: nonzero; stroke: none;" d="M 407.581 282.45 C 403.531 282.174 401.385 283.149 400.301 284.531 C 400.316 284.991 400.486 285.385 400.97 285.537 C 402.435 285.998 407.669 284.616 410.515 286.123 C 412.429 287.136 413.943 288.978 414.883 290.08 C 415.635 287.428 415.641 282.999 407.581 282.45"/>
  <path id="path118" style="fill: rgb(229, 105, 51); fill-opacity: 1; fill-rule: nonzero; stroke: none;" d="M 337.514 340.712 L 327.466 433.825 L 350.458 433.446 C 349.827 424.073 348.991 397.519 357.527 376.382 C 364.029 360.282 377.298 350.105 386.529 344.66 C 377.946 343.874 369.777 343.181 362.66 342.607 C 347.808 341.407 337.514 340.712 337.514 340.712"/>
  <path id="path120" style="fill: rgb(246, 155, 66); fill-opacity: 1; fill-rule: nonzero; stroke: none;" d="M 357.527 376.382 C 348.991 397.519 349.827 424.073 350.458 433.446 L 450.053 431.815 C 453.781 418.547 456.91 401.894 459.236 387.5 C 462.135 369.554 463.786 355.114 463.786 355.114 C 449.582 351.081 415.646 347.325 386.529 344.66 C 377.298 350.105 364.029 360.282 357.527 376.382"/>
  <path id="path122" style="fill: rgb(134, 70, 27); fill-opacity: 1; fill-rule: nonzero; stroke: none;" d="M 431.858 367.34 C 433.377 366.084 434.449 365.927 434.449 365.927 C 446.464 373.017 441 395.989 441 395.989 C 435.058 395.499 427.521 394.857 424.169 394.571 C 425.478 377.801 430.002 369.922 431.858 367.34"/>
  <path id="path124" style="fill: rgb(195, 96, 31); fill-opacity: 1; fill-rule: nonzero; stroke: none;" d="M 424.339 394.112 C 427.211 365.075 437.199 363.639 437.199 363.639 C 450.049 371.222 444.207 395.788 444.207 395.788 C 435.775 395.092 424.339 394.112 424.339 394.112 Z M 423.48 395.084 C 423.48 395.084 435.679 396.13 444.673 396.872 C 444.673 396.872 450.905 370.668 437.198 362.578 C 437.198 362.578 426.543 364.112 423.48 395.084"/>
  <path id="path126" style="fill: rgb(188, 94, 30); fill-opacity: 1; fill-rule: nonzero; stroke: none;" d="M 444.207 395.788 L 441.06 395.519 C 441.06 395.519 446.506 373.831 434.449 365.927 L 432.976 366.546 C 432.976 366.546 435.175 363.976 437.199 363.639 C 437.199 363.639 449.832 369.981 444.207 395.788"/>
  <path id="path128" style="fill: rgb(134, 70, 27); fill-opacity: 1; fill-rule: nonzero; stroke: none;" d="M 403.635 364.921 C 403.635 364.921 402.562 365.08 401.043 366.335 C 399.187 368.917 394.664 376.795 393.354 393.566 C 396.708 393.852 404.244 394.495 410.187 394.984 C 410.187 394.984 415.65 372.013 403.635 364.921"/>
  <path id="path130" style="fill: rgb(195, 96, 31); fill-opacity: 1; fill-rule: nonzero; stroke: none;" d="M 413.393 394.783 C 404.96 394.087 393.524 393.106 393.524 393.106 C 396.396 364.071 406.386 362.633 406.386 362.633 C 419.235 370.217 413.393 394.783 413.393 394.783 Z M 406.385 361.574 C 406.385 361.574 395.729 363.107 392.666 394.079 C 392.666 394.079 404.865 395.125 413.858 395.868 C 413.858 395.868 420.091 369.663 406.385 361.574"/>
  <path id="path132" style="fill: rgb(188, 94, 30); fill-opacity: 1; fill-rule: nonzero; stroke: none;" d="M 413.393 394.783 L 410.246 394.514 C 410.246 394.514 415.691 372.827 403.635 364.921 L 402.162 365.542 C 402.162 365.542 404.361 362.971 406.386 362.633 C 406.386 362.633 419.018 368.976 413.393 394.783"/>
  <path id="path134" style="fill: rgb(134, 70, 27); fill-opacity: 1; fill-rule: nonzero; stroke: none;" d="M 372.82 363.917 C 372.82 363.917 371.749 364.074 370.229 365.331 C 368.373 367.912 363.849 375.791 362.541 392.561 C 365.893 392.847 373.429 393.489 379.372 393.98 C 379.372 393.98 384.835 371.008 372.82 363.917"/>
  <path id="path136" style="fill: rgb(195, 96, 31); fill-opacity: 1; fill-rule: nonzero; stroke: none;" d="M 382.577 393.779 C 374.146 393.082 362.711 392.102 362.711 392.102 C 365.583 363.066 375.571 361.629 375.571 361.629 C 388.421 369.212 382.577 393.779 382.577 393.779 Z M 375.57 360.569 C 375.57 360.569 364.915 362.102 361.852 393.075 C 361.852 393.075 374.05 394.121 383.044 394.863 C 383.044 394.863 389.277 368.659 375.57 360.569"/>
  <path id="path138" style="fill: rgb(188, 94, 30); fill-opacity: 1; fill-rule: nonzero; stroke: none;" d="M 375.571 361.629 C 373.546 361.966 371.348 364.537 371.348 364.537 L 372.82 363.917 C 384.877 371.821 379.432 393.51 379.432 393.51 L 382.577 393.779 C 388.202 367.971 375.571 361.629 375.571 361.629"/>
  <path id="path140" style="fill: rgb(252, 204, 114); fill-opacity: 1; fill-rule: nonzero; stroke: none;" d="M 185.034 302.78 C 185.621 303.031 185.787 308.977 186.29 309.646 C 186.792 310.316 202.032 308.139 201.949 307.804 C 201.865 307.47 201.362 301.357 201.111 301.189 C 200.859 301.022 226.147 299.849 226.567 300.185 C 226.985 300.519 227.153 306.883 227.404 306.967 C 227.655 307.051 244.067 306.38 244.318 305.963 C 244.569 305.544 244.318 298.677 244.318 298.677 C 244.318 298.677 269.103 299.263 269.438 299.598 C 269.774 299.934 268.852 305.878 269.857 305.878 C 270.862 305.878 287.19 307.636 287.19 307.051 C 287.19 306.465 287.693 299.515 287.693 299.515 L 310.301 302.277 L 310.301 308.223 L 325.039 309.395 L 326.461 301.524 L 346.219 306.032 L 346.725 303.534 L 325.875 299.515 L 324.87 307.051 L 311.055 305.795 L 311.808 299.766 L 287.441 297.756 L 285.934 304.79 L 270.862 303.785 L 270.779 297.17 C 270.779 297.17 243.732 295.495 243.481 296.751 C 243.23 298.008 243.732 303.785 243.732 303.785 L 227.906 304.79 L 227.153 298.008 L 200.023 299.012 L 201.027 305.544 C 201.027 305.544 188.216 306.799 187.462 306.799 C 186.709 306.799 186.458 300.519 186.458 300.519 C 183.946 300.268 161.338 302.78 161.338 302.78 L 161.655 304.602 C 166.433 304.172 184.526 302.562 185.034 302.78"/>
  <path id="path142" style="fill: rgb(248, 158, 68); fill-opacity: 1; fill-rule: nonzero; stroke: none;" d="M 326.461 301.524 L 325.039 309.395 L 310.301 308.223 L 310.301 302.277 L 287.693 299.515 C 287.693 299.515 287.19 306.465 287.19 307.051 C 287.19 307.636 270.862 305.878 269.857 305.878 C 268.852 305.878 269.774 299.934 269.438 299.598 C 269.103 299.263 244.318 298.677 244.318 298.677 C 244.318 298.677 244.569 305.544 244.318 305.963 C 244.067 306.38 227.655 307.051 227.404 306.967 C 227.153 306.883 226.985 300.519 226.567 300.185 C 226.147 299.849 200.859 301.022 201.111 301.189 C 201.362 301.357 201.865 307.47 201.949 307.804 C 202.032 308.139 186.792 310.316 186.29 309.646 C 185.787 308.977 185.621 303.031 185.034 302.78 C 184.526 302.562 166.433 304.172 161.655 304.602 L 163.902 317.464 C 191.025 314.763 277.603 309.36 343.183 321.005 L 346.219 306.032 L 326.461 301.524"/>
  <path id="path144" style="fill: rgb(252, 204, 114); fill-opacity: 1; fill-rule: nonzero; stroke: none;" d="M 348.057 324.803 C 348.223 323.202 348.316 321.955 348.316 321.955 C 346.623 321.626 344.907 321.312 343.183 321.005 C 277.603 309.36 191.025 314.763 163.902 317.464 C 158.457 318.007 155.392 318.441 155.392 318.606 C 155.392 318.821 155.53 319.559 155.747 320.583 C 172.752 319.286 272.532 312.481 348.057 324.803"/>
  <path id="path146" style="fill: rgb(248, 158, 68); fill-opacity: 1; fill-rule: nonzero; stroke: none;" d="M 155.747 320.583 C 156.545 324.346 158.406 332.003 158.406 332.003 L 166.445 331.334 C 166.445 331.334 262.907 320.616 341.282 331.668 C 341.282 331.668 345.637 332.338 346.642 331.668 C 347.274 331.248 347.772 327.514 348.057 324.803 C 272.532 312.481 172.752 319.286 155.747 320.583"/>
  <path id="path148" style="fill: rgb(248, 158, 68); fill-opacity: 1; fill-rule: nonzero; stroke: none;" d="M 234.678 381.416 C 231.323 385.46 228.824 389.907 228.408 394.218 C 227.317 405.56 230.203 431.475 230.983 438.106 C 239.082 438.205 247.489 438.276 255.862 438.315 L 255.64 386.567 C 247.35 380.82 237.99 381.095 234.678 381.416"/>
  <path id="path150" style="fill: rgb(201, 99, 42); fill-opacity: 1; fill-rule: nonzero; stroke: none;" d="M 255.553 366.341 C 255.552 366.34 255.538 366.334 255.538 366.334 C 251.836 366.671 241.488 373.21 234.678 381.416 C 237.99 381.095 247.35 380.82 255.64 386.567 L 255.553 366.341"/>
  <path id="path152" style="fill: rgb(251, 202, 117); fill-opacity: 1; fill-rule: nonzero; stroke: none;" d="M 255.538 362.817 C 255.538 362.817 252.183 364.285 247.748 367.073 C 247.916 367.12 248.089 367.166 248.254 367.214 C 248.089 367.166 247.916 367.12 247.748 367.073 C 241.056 371.281 231.901 378.503 228.074 388.272 C 222.675 402.053 226.313 429.921 227.542 438.064 C 228.675 438.079 229.836 438.092 230.983 438.106 C 230.203 431.475 227.317 405.56 228.408 394.218 C 228.824 389.907 231.323 385.46 234.678 381.416 C 233.885 381.494 233.433 381.574 233.433 381.574 C 233.433 381.574 233.885 381.494 234.678 381.416 C 241.488 373.21 251.836 366.671 255.538 366.334 C 255.538 366.334 255.552 366.34 255.553 366.341 L 255.538 362.817"/>
  <path id="path154" style="fill: rgb(201, 99, 42); fill-opacity: 1; fill-rule: nonzero; stroke: none;" d="M 256.47 366.811 L 256.682 387.33 C 265.648 394.192 272.958 408.585 269.268 438.352 C 273.229 438.355 277.134 438.353 280.936 438.343 C 281.339 432.446 282.604 410.353 280.157 394.804 C 277.659 378.941 260.623 369.013 256.47 366.811"/>
  <path id="path156" style="fill: rgb(76, 25, 21); fill-opacity: 1; fill-rule: nonzero; stroke: none;" d="M 255.553 366.341 L 255.64 386.567 C 255.99 386.809 256.336 387.065 256.682 387.33 L 256.47 366.811 C 255.924 366.521 255.591 366.359 255.553 366.341"/>
  <path id="path158" style="fill: rgb(139, 48, 28); fill-opacity: 1; fill-rule: nonzero; stroke: none;" d="M 255.64 386.567 L 255.862 438.315 C 256.312 438.317 256.756 438.318 257.205 438.32 L 256.682 387.33 C 256.336 387.065 255.99 386.809 255.64 386.567"/>
  <path id="path160" style="fill: rgb(248, 158, 68); fill-opacity: 1; fill-rule: nonzero; stroke: none;" d="M 256.682 387.33 L 257.205 438.32 C 261.261 438.337 265.295 438.349 269.268 438.352 C 272.958 408.585 265.648 394.192 256.682 387.33"/>
  <path id="path162" style="fill: rgb(251, 202, 117); fill-opacity: 1; fill-rule: nonzero; stroke: none;" d="M 282.02 389.656 C 281.634 389.277 281.412 389.069 281.412 389.069 C 281.412 389.069 281.634 389.277 282.02 389.656 C 276.352 372.156 255.538 362.817 255.538 362.817 L 255.553 366.341 C 255.591 366.359 255.924 366.521 256.47 366.811 C 260.623 369.013 277.659 378.941 280.157 394.804 C 282.604 410.353 281.339 432.446 280.936 438.343 C 281.713 438.342 282.509 438.341 283.278 438.338 C 284.24 430.124 286.536 405.985 282.417 390.953 C 282.297 390.514 282.159 390.085 282.02 389.656"/>
  <path id="path164" style="fill: rgb(206, 95, 29); fill-opacity: 1; fill-rule: nonzero; stroke: none;" d="M 217.059 437.901 C 220.45 437.961 223.962 438.016 227.542 438.064 C 226.313 429.921 222.675 402.053 228.074 388.272 C 231.901 378.503 241.056 371.281 247.748 367.073 C 237.098 364.091 220.776 363.739 216.206 363.701 C 215.611 377.762 216.808 427.82 217.059 437.901"/>
  <path id="path166" style="fill: rgb(242, 140, 45); fill-opacity: 1; fill-rule: nonzero; stroke: none;" d="M 293.721 359.803 C 291.672 358.7 262.419 358.289 240.538 358.632 C 227.554 358.837 217.164 359.305 216.602 360.055 C 216.423 360.293 216.295 361.598 216.206 363.701 C 220.776 363.739 237.098 364.091 247.748 367.073 C 252.183 364.285 255.538 362.817 255.538 362.817 C 255.538 362.817 276.352 372.156 282.02 389.656 C 284.012 391.611 290.473 398.178 294.593 404.974 C 295.206 383.658 295.453 360.736 293.721 359.803"/>
  <path id="path168" style="fill: rgb(206, 95, 29); fill-opacity: 1; fill-rule: nonzero; stroke: none;" d="M 282.02 389.656 C 282.159 390.085 282.297 390.514 282.417 390.953 C 286.536 405.985 284.24 430.124 283.278 438.338 C 286.744 438.327 290.124 438.311 293.361 438.289 C 293.623 432.403 294.187 419.038 294.593 404.974 C 290.473 398.178 284.012 391.611 282.02 389.656"/>
  <path id="path170" style="fill: rgb(246, 152, 49); fill-opacity: 1; fill-rule: nonzero; stroke: none;" d="M 166.834 334.055 C 170.707 361.753 178.838 436.503 178.838 436.503 C 185.877 437.135 200.068 437.597 217.059 437.901 C 216.808 427.82 215.611 377.762 216.206 363.701 C 216.295 361.598 216.423 360.293 216.602 360.055 C 217.164 359.305 227.554 358.837 240.538 358.632 C 287.711 337.021 341.027 334.396 341.027 334.396 C 265.537 323.802 173.415 333.348 166.834 334.055"/>
  <path id="path172" style="fill: rgb(239, 132, 31); fill-opacity: 1; fill-rule: nonzero; stroke: none;" d="M 240.538 358.632 C 262.419 358.289 291.672 358.7 293.721 359.803 C 295.453 360.736 295.206 383.658 294.593 404.974 C 294.187 419.038 293.623 432.403 293.361 438.289 C 314.595 438.143 330.211 437.761 330.565 437.174 C 331.472 435.661 339.487 350.778 341.027 334.396 C 341.027 334.396 287.711 337.021 240.538 358.632"/>
  <path id="path174" style="fill: rgb(229, 105, 51); fill-opacity: 1; fill-rule: nonzero; stroke: none;" d="M 166.445 331.334 C 166.569 332.178 166.699 333.09 166.834 334.055 C 173.415 333.348 265.537 323.802 341.027 334.396 C 341.191 332.645 341.282 331.668 341.282 331.668 C 262.907 320.616 166.445 331.334 166.445 331.334"/>
  <path id="path176" style="fill: rgb(134, 70, 27); fill-opacity: 1; fill-rule: nonzero; stroke: none;" d="M 240.625 344.141 L 236.146 349.459 L 236.397 350.337 L 240.646 354.294 L 241.463 354.404 L 242.013 354.042 L 245.781 350.039 L 245.985 349.255 L 242.343 344.67 L 240.625 344.141"/>
  <path id="path178" style="fill: rgb(134, 70, 27); fill-opacity: 1; fill-rule: nonzero; stroke: none;" d="M 255.195 333.925 L 250.715 339.243 L 250.967 340.122 L 255.216 344.079 L 256.033 344.188 L 256.583 343.828 L 260.351 339.823 L 260.554 339.039 L 256.912 334.454 L 255.195 333.925"/>
  <path id="path180" style="fill: rgb(134, 70, 27); fill-opacity: 1; fill-rule: nonzero; stroke: none;" d="M 270.77 343.973 L 266.29 349.291 L 266.541 350.17 L 270.791 354.127 L 271.608 354.237 L 272.157 353.876 L 275.925 349.872 L 276.129 349.086 L 272.487 344.502 L 270.77 343.973"/>
  <path id="path182" style="fill: rgb(224, 122, 36); fill-opacity: 1; fill-rule: nonzero; stroke: none;" d="M 236.932 350.545 C 236.532 350.154 236.526 349.513 236.918 349.115 L 240.336 345.633 C 240.728 345.234 241.369 345.228 241.768 345.619 L 245.249 349.038 C 245.648 349.429 245.654 350.071 245.262 350.469 L 241.844 353.951 C 241.452 354.349 240.812 354.355 240.413 353.964 Z M 241.859 354.371 L 246.561 349.583 C 246.952 349.184 246.946 348.544 246.548 348.152 L 241.759 343.451 C 241.361 343.059 240.721 343.065 240.329 343.464 L 235.627 348.251 C 235.236 348.651 235.242 349.291 235.64 349.683 L 240.429 354.384 C 240.827 354.776 241.468 354.77 241.859 354.371"/>
  <path id="path184" style="fill: rgb(223, 115, 36); fill-opacity: 1; fill-rule: nonzero; stroke: none;" d="M 251.526 338.848 L 254.944 335.366 C 255.336 334.967 255.977 334.961 256.376 335.353 L 259.857 338.771 C 260.256 339.162 260.262 339.804 259.87 340.202 L 256.452 343.684 C 256.06 344.083 255.42 344.088 255.021 343.697 L 251.54 340.278 C 251.14 339.886 251.136 339.246 251.526 338.848 Z M 255.037 344.117 C 255.436 344.509 256.076 344.503 256.468 344.104 L 261.169 339.316 C 261.56 338.917 261.554 338.277 261.156 337.885 L 256.367 333.184 C 255.969 332.792 255.329 332.798 254.938 333.197 L 250.236 337.984 C 249.844 338.384 249.85 339.024 250.249 339.415 L 255.037 344.117"/>
  <path id="path186" style="fill: rgb(223, 115, 36); fill-opacity: 1; fill-rule: nonzero; stroke: none;" d="M 267.136 348.993 L 270.555 345.511 C 270.947 345.113 271.586 345.107 271.985 345.499 L 275.467 348.918 C 275.866 349.309 275.872 349.95 275.48 350.348 L 272.062 353.83 C 271.67 354.228 271.03 354.234 270.631 353.843 L 267.149 350.424 C 266.751 350.032 266.744 349.392 267.136 348.993 Z M 270.647 354.264 C 271.046 354.654 271.686 354.65 272.078 354.25 L 276.779 349.462 C 277.17 349.064 277.164 348.423 276.766 348.031 L 271.978 343.33 C 271.58 342.939 270.938 342.945 270.547 343.343 L 265.846 348.131 C 265.454 348.53 265.46 349.17 265.859 349.562 L 270.647 354.264"/>
  <path id="path188" style="fill: rgb(134, 70, 27); fill-opacity: 1; fill-rule: nonzero; stroke: none;" d="M 75.787 367.34 C 74.266 366.084 73.195 365.927 73.195 365.927 C 61.18 373.017 66.643 395.989 66.643 395.989 C 72.587 395.499 80.123 394.857 83.475 394.571 C 82.166 377.801 77.643 369.922 75.787 367.34"/>
  <path id="path190" style="fill: rgb(195, 96, 31); fill-opacity: 1; fill-rule: nonzero; stroke: none;" d="M 63.438 395.788 C 63.438 395.788 57.595 371.222 70.444 363.639 C 70.444 363.639 80.433 365.075 83.305 394.112 C 83.305 394.112 71.869 395.092 63.438 395.788 Z M 70.446 362.578 C 56.739 370.668 62.971 396.872 62.971 396.872 C 71.966 396.13 84.164 395.084 84.164 395.084 C 81.1 364.112 70.446 362.578 70.446 362.578"/>
  <path id="path192" style="fill: rgb(188, 94, 30); fill-opacity: 1; fill-rule: nonzero; stroke: none;" d="M 63.438 395.788 L 66.584 395.519 C 66.584 395.519 61.138 373.831 73.195 365.927 L 74.667 366.546 C 74.667 366.546 72.469 363.976 70.444 363.639 C 70.444 363.639 57.813 369.981 63.438 395.788"/>
  <path id="path194" style="fill: rgb(134, 70, 27); fill-opacity: 1; fill-rule: nonzero; stroke: none;" d="M 106.6 366.335 C 105.081 365.08 104.009 364.921 104.009 364.921 C 91.994 372.013 97.457 394.984 97.457 394.984 C 103.4 394.495 110.937 393.852 114.289 393.566 C 112.98 376.795 108.456 368.917 106.6 366.335"/>
  <path id="path196" style="fill: rgb(195, 96, 31); fill-opacity: 1; fill-rule: nonzero; stroke: none;" d="M 94.251 394.783 C 94.251 394.783 88.409 370.217 101.258 362.633 C 101.258 362.633 111.248 364.071 114.12 393.106 C 114.12 393.106 102.683 394.087 94.251 394.783 Z M 101.26 361.574 C 87.553 369.663 93.785 395.868 93.785 395.868 C 102.779 395.125 114.977 394.079 114.977 394.079 C 111.914 363.107 101.26 361.574 101.26 361.574"/>
  <path id="path198" style="fill: rgb(188, 94, 30); fill-opacity: 1; fill-rule: nonzero; stroke: none;" d="M 94.251 394.783 L 97.398 394.514 C 97.398 394.514 91.952 372.827 104.009 364.921 L 105.481 365.542 C 105.481 365.542 103.283 362.971 101.258 362.633 C 101.258 362.633 88.626 368.976 94.251 394.783"/>
  <path id="path200" style="fill: rgb(134, 70, 27); fill-opacity: 1; fill-rule: nonzero; stroke: none;" d="M 137.415 365.331 C 135.896 364.074 134.823 363.917 134.823 363.917 C 122.808 371.008 128.271 393.98 128.271 393.98 C 134.215 393.489 141.751 392.847 145.103 392.561 C 143.794 375.791 139.271 367.912 137.415 365.331"/>
  <path id="path202" style="fill: rgb(195, 96, 31); fill-opacity: 1; fill-rule: nonzero; stroke: none;" d="M 125.066 393.779 C 125.066 393.779 119.223 369.212 132.072 361.629 C 132.072 361.629 142.062 363.066 144.934 392.102 C 144.934 392.102 133.498 393.082 125.066 393.779 Z M 132.074 360.569 C 118.368 368.659 124.599 394.863 124.599 394.863 C 133.594 394.121 145.792 393.075 145.792 393.075 C 142.728 362.102 132.074 360.569 132.074 360.569"/>
  <path id="path204" style="fill: rgb(188, 94, 30); fill-opacity: 1; fill-rule: nonzero; stroke: none;" d="M 125.066 393.779 L 128.212 393.51 C 128.212 393.51 122.766 371.821 134.823 363.917 L 136.295 364.537 C 136.295 364.537 134.097 361.966 132.072 361.629 C 132.072 361.629 119.441 367.971 125.066 393.779"/>
  <path id="path206" style="fill: rgb(247, 149, 56); fill-opacity: 1; fill-rule: nonzero; stroke: none;" d="M 110.175 226.498 C 106.265 246.837 147.417 248.296 165.838 247.945 L 157.842 188.956 C 145.268 193.213 114.171 205.726 110.175 226.498"/>
  <path id="path208" style="fill: rgb(247, 149, 56); fill-opacity: 1; fill-rule: nonzero; stroke: none;" d="M 108.166 141.089 C 104.482 156.161 133.361 168.55 150.779 168.215 C 153.065 168.172 154.551 176.046 156.136 176.363 L 149.321 126.084 C 135.577 127.04 110.813 130.263 108.166 141.089"/>
  <path id="path210" style="fill: rgb(183, 88, 30); fill-opacity: 1; fill-rule: nonzero; stroke: none;" d="M 109.841 251.535 C 103.441 252.535 99.753 252.259 97.626 251.567 C 98.032 260.662 106.491 261.5 106.491 261.5 C 106.491 261.5 114.697 253.461 135.798 250.949 C 156.899 248.437 166.78 253.627 166.78 253.627 C 166.78 253.627 169.539 253.364 171.478 250.904 C 159.514 240.212 125.503 249.087 109.841 251.535"/>
  <path id="path212" style="fill: rgb(222, 122, 26); fill-opacity: 1; fill-rule: nonzero; stroke: none;" d="M 173.312 243.748 C 173.292 243.384 173.254 243.031 173.206 242.683 C 164.214 235.575 127.472 240.007 117.377 240.23 C 112.055 240.349 110.743 238.741 110.844 237.007 C 101.243 240.638 97.408 245.756 97.615 251.451 C 97.617 251.492 97.624 251.526 97.626 251.567 C 99.753 252.259 103.441 252.535 109.841 251.535 C 125.503 249.087 159.514 240.212 171.478 250.904 C 172.634 249.437 173.499 247.189 173.312 243.748"/>
  <path id="path214" style="fill: rgb(232, 137, 56); fill-opacity: 1; fill-rule: nonzero; stroke: none;" d="M 135.631 232.192 C 124.892 233.086 116.771 234.765 110.844 237.007 C 110.743 238.741 112.055 240.349 117.377 240.23 C 127.472 240.007 164.214 235.575 173.206 242.683 C 172.062 234.18 162.658 229.939 135.631 232.192"/>
  <path id="path216" style="fill: rgb(183, 92, 30); fill-opacity: 1; fill-rule: nonzero; stroke: none;" d="M 102.933 120.407 C 98.141 119.449 97.311 115.902 97.212 113.412 C 93.508 115.999 91.967 119.085 92.088 122.409 C 92.365 130.036 99.436 130.729 99.436 130.729 C 99.436 130.729 106.231 124.073 123.7 121.993 C 141.17 119.914 149.351 124.212 149.351 124.212 C 149.351 124.212 153.209 123.844 154.42 119.592 C 138.335 110.838 110.195 121.859 102.933 120.407"/>
  <path id="path218" style="fill: rgb(222, 122, 26); fill-opacity: 1; fill-rule: nonzero; stroke: none;" d="M 123.155 111.112 C 110.935 111.822 109.306 109.959 109.786 108.473 C 104.175 109.747 100.052 111.431 97.212 113.412 C 97.311 115.902 98.141 119.449 102.933 120.407 C 110.195 121.859 138.335 110.838 154.42 119.592 C 154.695 118.621 154.836 117.45 154.758 116.032 C 154.721 115.35 154.625 114.699 154.468 114.078 C 149.298 111.003 138.781 110.205 123.155 111.112"/>
  <path id="path220" style="fill: rgb(243, 150, 66); fill-opacity: 1; fill-rule: nonzero; stroke: none;" d="M 123.562 106.465 C 118.206 106.911 113.647 107.596 109.786 108.473 C 109.306 109.959 110.935 111.822 123.155 111.112 C 138.781 110.205 149.298 111.003 154.468 114.078 C 152.874 107.759 144.772 104.697 123.562 106.465"/>
  <path id="path222" style="fill: rgb(238, 157, 64); fill-opacity: 1; fill-rule: nonzero; stroke: none;" d="M 101.3 151.807 C 106.407 159.003 159.142 141.102 174.05 157.182 C 171.376 141.893 153.214 133.417 126.169 135.981 C 117.996 136.756 110.773 138.362 104.641 140.636 C 101.267 143.6 98.387 147.703 101.3 151.807"/>
  <path id="path224" style="fill: rgb(163, 64, 31); fill-opacity: 1; fill-rule: nonzero; stroke: none;" d="M 129.686 160.599 C 104.335 161.171 90.275 172.294 84.962 177.631 C 91.008 185.001 102.556 184.715 102.556 184.715 C 102.556 184.715 100.797 173.662 127.676 170.898 C 154.555 168.136 156.816 180.444 156.816 180.444 C 156.816 180.444 164.676 179.552 169.887 173.809 C 166.295 168.118 155.481 160.018 129.686 160.599"/>
  <path id="path226" style="fill: rgb(226, 142, 37); fill-opacity: 1; fill-rule: nonzero; stroke: none;" d="M 174.05 157.182 C 159.142 141.102 106.407 159.003 101.3 151.807 C 98.387 147.703 101.267 143.6 104.641 140.636 C 88.91 146.471 80.371 156.709 81.455 168.637 C 81.805 172.485 83.135 175.403 84.962 177.631 C 90.275 172.294 104.335 161.171 129.686 160.599 C 155.481 160.018 166.295 168.118 169.887 173.809 C 172.524 170.901 174.484 166.758 174.4 160.85 C 174.382 159.587 174.256 158.367 174.05 157.182"/>
  <path id="path228" style="fill: rgb(250, 183, 84); fill-opacity: 1; fill-rule: nonzero; stroke: none;" d="M 472.454 353.928 L 473.08 351.513 C 445.491 342.318 395.282 338.086 365.798 336.314 C 366.835 337.101 368.36 337.862 370.589 338.2 C 375.928 339.008 445.959 342.943 472.454 353.928"/>
  <path id="path230" style="fill: rgb(227, 152, 43); fill-opacity: 1; fill-rule: nonzero; stroke: none;" d="M 370.589 338.2 C 368.36 337.862 366.835 337.101 365.798 336.314 C 351.79 335.473 342.454 335.185 342.454 335.185 L 338.938 334.18 L 338.686 341.214 C 366.822 342.47 463.786 355.114 463.786 355.114 L 471.322 358.296 L 472.454 353.928 C 445.959 342.943 375.928 339.008 370.589 338.2"/>
</svg>